<svg width="50" height="50" viewBox="0 0 50 50" fill="none" xmlns="http://www.w3.org/2000/svg">
<rect x="0.4" y="0.4" width="49.2" height="49.2" rx="13.6" stroke="#DDDADA" stroke-width="0.8"/>
<path d="M33.8 25.2083C33.8 24.5583 33.7417 23.9333 33.6333 23.3333H25V26.8833H29.9333C29.7167 28.025 29.0667 28.9916 28.0917 29.6416V31.95H31.0667C32.8 30.35 33.8 28 33.8 25.2083Z" fill="#4285F4"/>
<path d="M25.0002 34.1667C27.4752 34.1667 29.5502 33.35 31.0669 31.95L28.0919 29.6417C27.2752 30.1917 26.2336 30.525 25.0002 30.525C22.6169 30.525 20.5919 28.9167 19.8669 26.75H16.8169V29.1167C18.3252 32.1083 21.4169 34.1667 25.0002 34.1667Z" fill="#34A853"/>
<path d="M19.8668 26.7417C19.6835 26.1917 19.5752 25.6083 19.5752 25C19.5752 24.3917 19.6835 23.8083 19.8668 23.2583V20.8917H16.8168C16.1918 22.125 15.8335 23.5167 15.8335 25C15.8335 26.4833 16.1918 27.875 16.8168 29.1083L19.1918 27.2583L19.8668 26.7417Z" fill="#FBBC05"/>
<path d="M25.0002 19.4833C26.3502 19.4833 27.5502 19.95 28.5086 20.85L31.1336 18.225C29.5419 16.7416 27.4752 15.8333 25.0002 15.8333C21.4169 15.8333 18.3252 17.8916 16.8169 20.8916L19.8669 23.2583C20.5919 21.0916 22.6169 19.4833 25.0002 19.4833Z" fill="#EA4335"/>
</svg>
